# This file uses centimeters as units for non-parametric coordinates.

mtllib Modulo7.mtl
g default
v -5.000000 0.500000 5.000000
v 5.000000 0.500000 5.000000
v -5.000000 0.500000 -5.000000
v 5.000000 0.500000 -5.000000
v -5.000000 -0.500000 -5.000000
v 5.000000 -0.500000 -5.000000
v -5.000000 -0.500000 5.000000
v 5.000000 -0.500000 5.000000
v 0.000000 0.500000 5.000000
v -5.000000 0.500000 0.000000
v 0.000000 0.500000 0.000000
v 5.000000 0.500000 0.000000
v 0.000000 0.500000 -5.000000
v 0.000000 -0.500000 -5.000000
v -5.000000 -0.500000 0.000000
v 0.000000 -0.500000 0.000000
v 5.000000 -0.500000 0.000000
v 0.000000 -0.500000 5.000000
v -2.500000 0.500000 2.500000
v -5.000000 0.500000 2.500000
v -2.500000 0.500000 5.000000
v 0.000000 0.500000 2.500000
v -2.500000 0.500000 0.000000
v 5.000000 0.500000 2.500000
v -2.500000 0.500000 -5.000000
v -2.500000 -0.500000 -2.500000
v -5.000000 -0.500000 -2.500000
v -2.500000 -0.500000 -5.000000
v 0.000000 -0.500000 -2.500000
v -2.500000 -0.500000 0.000000
v 5.000000 -0.500000 -2.500000
v -2.500000 -0.500000 5.000000
v 2.500000 0.500000 5.000000
v -5.000000 0.500000 -2.500000
v 2.500000 0.500000 2.500000
v 2.500000 0.500000 0.000000
v 2.500000 0.500000 -2.500000
v 5.000000 0.500000 -2.500000
v 2.500000 0.500000 -5.000000
v 0.000000 0.500000 -2.500000
v -2.500000 0.500000 -2.500000
v 2.500000 -0.500000 -5.000000
v -5.000000 -0.500000 2.500000
v 2.500000 -0.500000 -2.500000
v 2.500000 -0.500000 0.000000
v 2.500001 -0.500000 2.500000
v 5.000000 -0.500000 2.500000
v 2.500000 -0.500000 5.000000
v 0.000000 -0.500000 2.500000
v -2.500000 -0.500000 2.500000
v -3.750000 0.500000 1.250000
v -3.750000 0.500000 0.000000
v -5.000000 0.500000 1.250000
v -3.750000 0.500000 2.500000
v -2.500000 0.500000 1.250000
v 5.000000 0.500000 1.250000
v -3.750000 -0.500000 -1.250000
v -3.750000 -0.500000 0.000000
v -5.000000 -0.500000 -1.250000
v -3.750000 -0.500000 -2.500000
v -2.500000 -0.500000 -1.250000
v 5.000000 -0.500000 -1.250000
v -1.250000 0.500000 5.000000
v -5.000000 0.500000 -1.250000
v 1.250000 0.500000 3.750000
v 0.000000 0.500000 3.750000
v 1.250000 0.500000 5.000000
v 2.500000 0.500000 3.750000
v 1.250000 0.500000 2.500000
v 3.750000 0.500000 -1.250000
v 3.750000 0.500000 0.000000
v 5.000000 0.500000 -1.250000
v 3.750000 0.500000 -2.500000
v 2.500000 0.500000 -1.250000
v -1.250000 0.500000 -3.750000
v 0.000000 0.500000 -3.750000
v -1.250000 0.500000 -5.000000
v -2.500000 0.500000 -3.750000
v -1.250000 0.500000 -2.500000
v 1.250000 0.500000 -5.000000
v -1.250000 -0.500000 -5.000000
v -5.000000 -0.500000 1.250000
v 1.250000 -0.500000 -3.750000
v 0.000000 -0.500000 -3.750000
v 1.250000 -0.500000 -5.000000
v 2.500000 -0.500000 -3.750000
v 1.250000 -0.500000 -2.500000
v 3.750000 -0.500000 1.250000
v 3.750000 -0.500000 0.000000
v 5.000000 -0.500000 1.250000
v 3.750000 -0.500000 2.500000
v 2.500000 -0.500000 1.250000
v -1.249999 -0.500000 3.750000
v 0.000000 -0.500000 3.750000
v -1.250000 -0.500000 5.000000
v -2.500000 -0.500000 3.750000
v -1.250000 -0.500000 2.500000
v 1.250000 -0.500000 5.000000
v -3.750000 0.500000 3.750000
v -5.000000 0.500000 3.750000
v -3.750000 0.500000 5.000000
v -2.500000 0.500000 3.750000
v -1.250000 0.500000 3.750000
v -1.250000 0.500000 2.500000
v -1.250000 0.500000 1.250000
v 0.000000 0.500000 1.250000
v -1.250000 0.500000 0.000000
v 5.000000 0.500000 3.750000
v -3.750000 0.500000 -5.000000
v -3.750000 -0.500000 -3.750000
v -5.000000 -0.500000 -3.750000
v -3.750000 -0.500000 -5.000000
v -2.500000 -0.500000 -3.750000
v -1.250000 -0.500000 -3.750000
v -1.250000 -0.500000 -2.500000
v -1.250000 -0.500000 -1.250000
v 0.000000 -0.500000 -1.250000
v -1.250000 -0.500000 0.000000
v 5.000000 -0.500000 -3.750000
v -3.750000 -0.500000 5.000000
v 3.750000 0.500000 5.000000
v -5.000000 0.500000 -3.750000
v 3.750000 0.500000 3.750000
v 3.750000 0.500000 2.500000
v 3.750000 0.500000 1.250000
v 2.500000 0.500000 1.250000
v 1.250000 0.500000 1.250000
v 1.250000 0.500000 0.000000
v 3.750000 0.500000 -3.750000
v 5.000000 0.500000 -3.750000
v 3.750000 0.500000 -5.000000
v 2.500000 0.500000 -3.750000
v 1.250000 0.500000 -3.750000
v 1.250000 0.500000 -2.500000
v 1.250000 0.500000 -1.250000
v 0.000000 0.500000 -1.250000
v -3.750000 0.500000 -3.750000
v -3.750000 0.500000 -2.500000
v -3.750000 0.500000 -1.250000
v -2.500000 0.500000 -1.250000
v -1.250000 0.500000 -1.250000
v 3.750000 -0.500000 -5.000000
v -5.000000 -0.500000 3.750000
v 3.750000 -0.500000 -3.750000
v 3.750000 -0.500000 -2.500000
v 3.750000 -0.500000 -1.250000
v 2.500000 -0.500000 -1.250000
v 1.250000 -0.500000 -1.250000
v 1.250000 -0.500000 0.000000
v 3.750000 -0.500000 3.750000
v 5.000000 -0.500000 3.750000
v 3.750000 -0.500000 5.000000
v 2.500000 -0.500000 3.750000
v 1.250000 -0.500000 3.750000
v 1.250001 -0.500000 2.500000
v 1.250000 -0.500000 1.250000
v 0.000000 -0.500000 1.250000
v -3.750000 -0.500000 3.750000
v -3.750000 -0.500000 2.500000
v -3.750000 -0.500000 1.250000
v -2.500000 -0.500000 1.250000
v -1.250000 -0.500000 1.250000
vt 0.341654 0.799413
vt 0.342244 0.751619
vt 0.390100 0.752120
vt 0.389477 0.799913
vt 0.180058 0.203711
vt 0.180652 0.251620
vt 0.132773 0.252121
vt 0.132143 0.204213
vt 0.729196 0.290950
vt 0.777086 0.291451
vt 0.776596 0.339248
vt 0.728694 0.338748
vt 0.682700 0.146706
vt 0.682214 0.194679
vt 0.634238 0.194176
vt 0.634692 0.146203
vt 0.295501 0.655354
vt 0.247577 0.654852
vt 0.248104 0.606882
vt 0.296052 0.607384
vt 0.323366 0.154238
vt 0.275408 0.154741
vt 0.274902 0.106718
vt 0.322882 0.106215
vt 0.372596 0.297469
vt 0.372174 0.249614
vt 0.420051 0.249113
vt 0.420434 0.296968
vt 0.229600 0.346768
vt 0.277413 0.346268
vt 0.277911 0.394009
vt 0.230126 0.394509
vt 0.388853 0.847649
vt 0.698941 0.765007
vt 0.651051 0.765011
vt 0.388306 0.895327
vt 0.872288 0.340248
vt 0.651046 0.726661
vt 0.698903 0.726677
vt 0.824443 0.339748
vt 0.824969 0.291952
vt 0.777604 0.243596
vt 0.293867 0.798913
vt 0.131514 0.156248
vt 0.794672 0.764999
vt 0.794651 0.726708
vt 0.130931 0.108227
vt 0.178933 0.107724
vt 0.178424 0.059646
vt 0.842583 0.726724
vt 0.226926 0.107221
vt 0.227444 0.155243
vt 0.275906 0.202707
vt 0.227985 0.203209
vt 0.680793 0.338247
vt 0.842583 0.764995
vt 0.890434 0.764992
vt 0.632908 0.337747
vt 0.633356 0.289948
vt 0.890436 0.726740
vt 0.746759 0.765003
vt 0.633797 0.242091
vt 0.681743 0.242593
vt 0.730181 0.195181
vt 0.729679 0.243094
vt 0.635158 0.098172
vt 0.056217 0.604871
vt 0.104227 0.605374
vt 0.152207 0.605877
vt 0.746783 0.726693
vt 0.603161 0.726646
vt 0.200156 0.606379
vt 0.199652 0.654350
vt 0.247044 0.702763
vt 0.199154 0.702262
vt 0.343999 0.607888
vt 0.603162 0.765014
vt 0.555208 0.765018
vt 0.391954 0.608390
vt 0.391350 0.656358
vt 0.558554 0.443820
vt 0.606361 0.443800
vt 0.390725 0.704268
vt 0.342834 0.703767
vt 0.294378 0.751118
vt 0.294939 0.703265
vt 0.370874 0.105711
vt 0.370378 0.057631
vt 0.418409 0.057127
vt 0.418881 0.105208
vt 0.419302 0.153233
vt 0.606363 0.482080
vt 0.558563 0.482089
vt 0.419682 0.201201
vt 0.371758 0.201703
vt 0.324291 0.250116
vt 0.323836 0.202205
vt 0.420822 0.344767
vt 0.654178 0.482072
vt 0.654166 0.443780
vt 0.421245 0.392510
vt 0.373474 0.393010
vt 0.702003 0.443760
vt 0.702009 0.482063
vt 0.325700 0.393510
vt 0.325222 0.345768
vt 0.276909 0.298471
vt 0.324764 0.297970
vt 0.182351 0.395009
vt 0.749869 0.482054
vt 0.749868 0.443740
vt 0.134585 0.395508
vt 0.134006 0.347769
vt 0.797760 0.443720
vt 0.797756 0.482045
vt 0.133396 0.299973
vt 0.181226 0.299472
vt 0.228526 0.251118
vt 0.229063 0.298971
vt 0.845670 0.482036
vt 0.845680 0.443700
vt 0.341136 0.847149
vt 0.893602 0.443680
vt 0.893636 0.482027
vt 0.179492 0.155746
vt 0.941590 0.482018
vt 0.941564 0.443660
vt 0.681270 0.290449
vt 0.551862 0.886555
vt 0.599619 0.924803
vt 0.599619 0.886542
vt 0.151711 0.653848
vt 0.647348 0.924806
vt 0.647347 0.886529
vt 0.343424 0.655856
vt 0.695072 0.924809
vt 0.274400 0.058638
vt 0.371325 0.153735
vt 0.695092 0.886517
vt 0.742907 0.924812
vt 0.373037 0.345268
vt 0.742896 0.886504
vt 0.790837 0.924815
vt 0.181792 0.347269
vt 0.790866 0.886491
vt 0.919622 0.388486
vt 0.246540 0.750617
vt 0.838885 0.924818
vt 0.838886 0.886479
vt 0.276412 0.250617
vt 0.886927 0.924821
vt 0.886926 0.886466
vt 0.934943 0.924824
vt 0.606641 0.641925
vt 0.558747 0.641918
vt 0.558577 0.603574
vt 0.466465 0.056623
vt 0.606604 0.603590
vt 0.654597 0.603606
vt 0.654599 0.641932
vt 0.702581 0.641939
vt 0.702592 0.603622
vt 0.103745 0.653346
vt 0.151241 0.701761
vt 0.198679 0.750116
vt 0.246059 0.798413
vt 0.293380 0.846650
vt 0.340643 0.894828
vt 0.750551 0.603639
vt 0.632426 0.385488
vt 0.871808 0.387986
vt 0.728194 0.386487
vt 0.680306 0.385988
vt 0.823966 0.387487
vt 0.776080 0.386987
vt 0.584604 0.384989
vt 0.585072 0.337247
vt 0.585478 0.289447
vt 0.586671 0.145701
vt 0.587086 0.097668
vt 0.585875 0.241590
vt 0.586273 0.193674
vt 0.587527 0.049578
vt 0.439951 0.608893
vt 0.435926 0.895826
vt 0.436583 0.848149
vt 0.438608 0.704769
vt 0.439285 0.656860
vt 0.437257 0.800413
vt 0.437932 0.752620
vt 0.435401 0.943445
vt 0.387796 0.942947
vt 0.750491 0.641947
vt 0.056725 0.556840
vt 0.104741 0.557344
vt 0.392485 0.560363
vt 0.344523 0.559860
vt 0.200659 0.558350
vt 0.152704 0.557847
vt 0.296569 0.559357
vt 0.248615 0.558854
vt 0.440514 0.560867
vt 0.421695 0.440197
vt 0.135133 0.443192
vt 0.182884 0.442693
vt 0.326180 0.441196
vt 0.373941 0.440696
vt 0.230642 0.442194
vt 0.278411 0.441695
vt 0.087437 0.443691
vt 0.086858 0.396008
vt 0.082892 0.108731
vt 0.083527 0.156751
vt 0.085577 0.300474
vt 0.086227 0.348269
vt 0.084209 0.204715
vt 0.084903 0.252623
vt 0.468975 0.392011
vt 0.469395 0.439698
vt 0.466924 0.104705
vt 0.467296 0.152730
vt 0.468255 0.296467
vt 0.468606 0.344267
vt 0.467617 0.200699
vt 0.467928 0.248611
vt 0.798378 0.641954
vt 0.798325 0.603655
vt 0.130396 0.060150
vt 0.846143 0.603671
vt 0.322385 0.058134
vt 0.846137 0.641961
vt 0.226414 0.059142
vt 0.893919 0.641968
vt 0.082344 0.060653
vt 0.893935 0.603688
vt 0.555215 0.726630
vt 0.938260 0.764988
vt 0.938266 0.726755
vt 0.551861 0.924800
vt 0.941768 0.603704
vt 0.941712 0.641976
vt 0.934933 0.886453
vn 0.000000 1.000000 0.000000
vn 0.000000 1.000000 0.000000
vn 0.000000 1.000000 0.000000
vn 0.000000 1.000000 0.000000
vn 0.000000 -1.000000 0.000000
vn 0.000000 -1.000000 0.000000
vn 0.000000 -1.000000 0.000000
vn 0.000000 -1.000000 0.000000
vn 0.000000 1.000000 0.000000
vn 0.000000 1.000000 0.000000
vn 0.000000 1.000000 0.000000
vn 0.000000 1.000000 0.000000
vn 0.000000 1.000000 0.000000
vn 0.000000 1.000000 0.000000
vn 0.000000 1.000000 0.000000
vn 0.000000 1.000000 0.000000
vn 0.000000 1.000000 0.000000
vn 0.000000 1.000000 0.000000
vn 0.000000 1.000000 0.000000
vn 0.000000 1.000000 0.000000
vn 0.000000 -1.000000 0.000000
vn 0.000000 -1.000000 0.000000
vn 0.000000 -1.000000 0.000000
vn 0.000000 -1.000000 0.000000
vn 0.000000 -1.000000 0.000000
vn 0.000000 -1.000000 0.000000
vn 0.000000 -1.000000 0.000000
vn 0.000000 -1.000000 0.000000
vn 0.000000 -1.000000 0.000000
vn 0.000000 -1.000000 0.000000
vn 0.000000 -1.000000 0.000000
vn 0.000000 -1.000000 0.000000
vn 0.000000 1.000000 0.000000
vn 0.000000 1.000000 0.000000
vn 0.000000 1.000000 0.000000
vn 0.000000 1.000000 0.000000
vn 0.000000 1.000000 0.000000
vn 0.000000 1.000000 0.000000
vn 0.000000 1.000000 0.000000
vn 0.000000 1.000000 0.000000
vn 0.000000 1.000000 0.000000
vn 0.000000 1.000000 0.000000
vn 0.000000 1.000000 0.000000
vn 0.000000 -1.000000 0.000000
vn 0.000000 -1.000000 0.000000
vn 0.000000 -1.000000 0.000000
vn 0.000000 -1.000000 0.000000
vn 0.000000 -1.000000 0.000000
vn 0.000000 -1.000000 0.000000
vn 0.000000 -1.000000 0.000000
vn 0.000000 -1.000000 0.000000
vn 0.000000 -1.000000 0.000000
vn 0.000000 -1.000000 0.000000
vn 0.000000 -1.000000 0.000000
vn 0.000000 1.000000 0.000000
vn 0.000000 1.000000 0.000000
vn 0.000000 1.000000 0.000000
vn 0.000000 1.000000 0.000000
vn 0.000000 1.000000 0.000000
vn 0.000000 1.000000 0.000000
vn 0.000000 1.000000 0.000000
vn 0.000000 1.000000 0.000000
vn 0.000000 1.000000 0.000000
vn 0.000000 1.000000 0.000000
vn 0.000000 1.000000 0.000000
vn 0.000000 1.000000 0.000000
vn 0.000000 1.000000 0.000000
vn 0.000000 1.000000 0.000000
vn 0.000000 1.000000 0.000000
vn 0.000000 1.000000 0.000000
vn 0.000000 1.000000 0.000000
vn 0.000000 1.000000 0.000000
vn 0.000000 1.000000 0.000000
vn 0.000000 1.000000 0.000000
vn 0.000000 1.000000 0.000000
vn 0.000000 1.000000 0.000000
vn 0.000000 1.000000 0.000000
vn 0.000000 1.000000 0.000000
vn 0.000000 1.000000 0.000000
vn 0.000000 1.000000 0.000000
vn 0.000000 1.000000 0.000000
vn 0.000000 1.000000 0.000000
vn 0.000000 1.000000 0.000000
vn 0.000000 1.000000 0.000000
vn 0.000000 1.000000 0.000000
vn 0.000000 1.000000 0.000000
vn 0.000000 -1.000000 0.000000
vn 0.000000 -1.000000 0.000000
vn 0.000000 -1.000000 0.000000
vn 0.000000 -1.000000 0.000000
vn 0.000000 -1.000000 0.000000
vn 0.000000 -1.000000 0.000000
vn 0.000000 -1.000000 0.000000
vn 0.000000 -1.000000 0.000000
vn 0.000000 -1.000000 0.000000
vn 0.000000 -1.000000 0.000000
vn 0.000000 -1.000000 0.000000
vn 0.000000 -1.000000 0.000000
vn 0.000000 -1.000000 0.000000
vn 0.000000 -1.000000 0.000000
vn 0.000000 -1.000000 0.000000
vn 0.000000 -1.000000 0.000000
vn 0.000000 -1.000000 0.000000
vn 0.000000 -1.000000 0.000000
vn 0.000000 -1.000000 0.000000
vn 0.000000 -1.000000 0.000000
vn 0.000000 -1.000000 0.000000
vn 0.000000 -1.000000 0.000000
vn 0.000000 -1.000000 0.000000
vn 0.000000 -1.000000 0.000000
vn 0.000000 -1.000000 0.000000
vn 0.000000 -1.000000 0.000000
vn 0.000000 -1.000000 0.000000
vn 0.000000 -1.000000 0.000000
vn 0.000000 -1.000000 0.000000
vn 0.000000 -1.000000 0.000000
vn 0.000000 -1.000000 0.000000
vn 0.000000 -1.000000 0.000000
vn 0.000000 -1.000000 0.000000
vn 0.000000 1.000000 0.000000
vn 0.000000 1.000000 0.000000
vn 0.000000 1.000000 0.000000
vn 0.000000 -1.000000 0.000000
vn 0.000000 -1.000000 0.000000
vn 0.000000 -1.000000 0.000000
vn 0.000000 1.000000 0.000000
vn 0.000000 1.000000 0.000000
vn 0.000000 1.000000 0.000000
vn 0.000000 1.000000 0.000000
vn 0.000000 1.000000 0.000000
vn 0.000000 1.000000 0.000000
vn 0.000000 1.000000 0.000000
vn 0.000000 1.000000 0.000000
vn 0.000000 1.000000 0.000000
vn 0.000000 1.000000 0.000000
vn 0.000000 0.000000 -1.000000
vn 0.000000 0.000000 -1.000000
vn 0.000000 0.000000 -1.000000
vn 0.000000 0.000000 -1.000000
vn 0.000000 0.000000 -1.000000
vn 0.000000 0.000000 -1.000000
vn 0.000000 0.000000 -1.000000
vn 0.000000 0.000000 -1.000000
vn 0.000000 -1.000000 0.000000
vn 0.000000 -1.000000 0.000000
vn 0.000000 -1.000000 0.000000
vn 0.000000 -1.000000 0.000000
vn 0.000000 -1.000000 0.000000
vn 0.000000 -1.000000 0.000000
vn 0.000000 -1.000000 0.000000
vn 0.000000 -1.000000 0.000000
vn 0.000000 -1.000000 0.000000
vn 0.000000 1.000000 0.000000
vn 0.000000 1.000000 0.000000
vn 0.000000 1.000000 0.000000
vn 0.000000 0.000000 -1.000000
vn 0.000000 0.000000 -1.000000
vn 0.000000 0.000000 -1.000000
vn 0.000000 0.000000 -1.000000
vn 0.000000 -1.000000 0.000000
vn 0.000000 -1.000000 0.000000
vn 0.000000 -1.000000 0.000000
vn 0.000000 1.000000 0.000000
vn 0.000000 1.000000 0.000000
vn 0.000000 1.000000 0.000000
vn 0.000000 1.000000 0.000000
vn 0.000000 1.000000 0.000000
vn 0.000000 1.000000 0.000000
vn 0.000000 0.000000 -1.000000
vn 0.000000 0.000000 -1.000000
vn 0.000000 0.000000 -1.000000
vn 0.000000 0.000000 -1.000000
vn 0.000000 0.000000 -1.000000
vn 0.000000 0.000000 -1.000000
vn 0.000000 -1.000000 0.000000
vn 0.000000 -1.000000 0.000000
vn 0.000000 -1.000000 0.000000
vn 0.000000 -1.000000 0.000000
vn 0.000000 -1.000000 0.000000
vn 0.000000 -1.000000 0.000000
vn -1.000000 0.000000 0.000000
vn -1.000000 0.000000 0.000000
vn -1.000000 0.000000 0.000000
vn -1.000000 0.000000 0.000000
vn -1.000000 0.000000 0.000000
vn -1.000000 0.000000 0.000000
vn -1.000000 0.000000 0.000000
vn -1.000000 0.000000 0.000000
vn -1.000000 0.000000 0.000000
vn -1.000000 0.000000 0.000000
vn -1.000000 0.000000 0.000000
vn -1.000000 0.000000 0.000000
vn -1.000000 0.000000 0.000000
vn -1.000000 0.000000 0.000000
vn -1.000000 0.000000 0.000000
vn -1.000000 0.000000 0.000000
vn -1.000000 0.000000 0.000000
vn -1.000000 0.000000 0.000000
vn 0.000000 0.000001 1.000000
vn 0.000000 0.000001 1.000000
vn 0.000000 0.000001 1.000000
vn 0.000000 0.000001 1.000000
vn 0.000000 0.000001 1.000000
vn 0.000000 0.000001 1.000000
vn 0.000000 0.000001 1.000000
vn 0.000000 0.000001 1.000000
vn 0.000000 0.000001 1.000000
vn 0.000000 0.000001 1.000000
vn 0.000000 0.000001 1.000000
vn 0.000000 0.000001 1.000000
vn 0.000000 0.000001 1.000000
vn 0.000000 0.000001 1.000000
vn 0.000000 0.000001 1.000000
vn 0.000000 0.000001 1.000000
vn 0.000000 0.000001 1.000000
vn 0.000000 0.000001 1.000000
vn 1.000000 0.000000 0.000000
vn 1.000000 0.000000 0.000000
vn 1.000000 0.000000 0.000000
vn 1.000000 0.000000 0.000000
vn 1.000000 0.000000 0.000000
vn 1.000000 0.000000 0.000000
vn 1.000000 0.000000 0.000000
vn 1.000000 0.000000 0.000000
vn 1.000000 0.000000 0.000000
vn 1.000000 0.000000 0.000000
vn 1.000000 0.000000 0.000000
vn 1.000000 0.000000 0.000000
vn 1.000000 0.000000 0.000000
vn 1.000000 0.000000 0.000000
vn 1.000000 0.000000 0.000000
vn 1.000000 0.000000 0.000000
vn 1.000000 0.000000 0.000000
vn 1.000000 0.000000 0.000000
s 1
g polySurface152 polySurface66
usemtl lambert123SG
f 55/1/1 23/2/2 52/3/3 51/4/4
s 2
f 61/5/5 30/6/6 58/7/7 57/8/8
s 1
f 69/9/9 22/10/10 66/11/11 65/12/12
f 74/13/13 36/14/14 71/15/15 70/16/16
f 79/17/17 40/18/18 76/19/19 75/20/20
s 2
f 87/21/21 29/22/22 84/23/23 83/24/24
f 92/25/25 45/26/26 89/27/27 88/28/28
f 97/29/29 49/30/30 94/31/31 93/32/32
s 1
f 54/33/33 20/186/34 100/185/35 99/36/36
f 102/37/37 21/171/38 63/174/39 103/40/40
f 104/167/41 106/166/42 105/43/43
s 2
f 60/44/44 27/213/45 111/212/46 110/47/47
f 113/48/48 28/49/49 81/232/50 114/51/51
f 115/52/52 29/22/22 117/53/53 116/54/54
s 1
f 68/55/55 33/173/56 121/170/57 123/58/58
f 124/59/59 24/178/60 56/181/61 125/62/62
f 126/63/63 36/14/14 128/64/64 127/65/65
f 73/163/66 130/67/67 129/68/68
f 132/69/69 39/199/70 80/198/71 133/72/72
f 134/73/73 40/18/18 136/74/74 135/75/75
f 78/76/76 25/197/77 109/196/78 137/79/79
f 138/80/80 34/188/81 64/187/82 139/83/83
f 140/84/84 23/2/2 107/85/85 141/86/86
s 2
f 86/87/87 42/88/88 142/89/89 144/90/90
f 145/91/91 31/221/92 62/224/93 146/94/94
f 147/95/95 45/26/26 149/96/96 148/97/97
f 91/98/98 47/223/99 151/218/100 150/101/101
f 153/102/102 48/207/103 98/206/104 154/105/105
f 155/106/106 49/30/30 157/107/107 156/108/108
f 96/109/109 32/205/110 120/204/111 158/112/112
f 159/113/113 43/215/114 82/214/115 160/116/116
f 161/117/117 30/6/6 118/118/118 162/119/119
s 1
f 52/3/3 10/190/120 53/189/121 51/4/4
f 53/189/121 20/186/34 54/33/33 51/4/4
f 54/33/33 19/122/122 55/1/1 51/4/4
s 2
f 58/7/7 15/217/123 59/216/124 57/8/8
f 59/216/124 27/213/45 60/44/44 57/8/8
f 60/44/44 26/125/125 61/5/5 57/8/8
s 1
f 66/11/11 9/175/126 67/172/127 65/12/12
f 67/172/127 33/173/56 68/55/55 65/12/12
f 68/55/55 35/128/128 69/9/9 65/12/12
f 71/15/15 12/182/129 72/179/130 70/16/16
f 72/179/130 38/180/131 73/66/66 70/16/16
f 73/163/66 37/132/132 74/164/13
f 76/19/19 13/201/133 77/200/134 75/20/20
f 77/200/134 25/197/77 78/76/76 75/20/20
f 78/76/76 41/135/135 79/17/17 75/20/20
s 26
f 80/34/136 39/35/137 42/38/138 85/39/139
f 77/45/140 81/46/141 28/50/142 25/56/143
s 2
f 84/23/23 14/137/144 85/230/145 83/24/24
f 85/230/145 42/88/88 86/87/87 83/24/24
f 86/87/87 44/138/146 87/21/21 83/24/24
f 89/27/27 17/225/147 90/222/148 88/28/28
f 90/222/148 47/223/99 91/98/98 88/28/28
f 91/98/98 46/141/149 92/25/25 88/28/28
f 94/31/31 18/209/150 95/208/151 93/32/32
f 95/208/151 32/205/110 96/109/109 93/32/32
f 96/109/109 50/144/152 97/29/29 93/32/32
s 1
f 100/185/35 1/191/153 101/192/154 99/36/36
f 101/192/154 102/168/37 99/36/36
f 102/168/37 19/122/122 54/33/33 99/36/36
f 63/174/39 9/175/126 66/11/11 103/40/40
f 66/11/11 22/10/10 104/41/41 103/40/40
f 104/167/41 19/122/122 102/168/37
f 106/166/42 11/147/155 107/85/85 105/43/43
f 107/85/85 23/2/2 55/1/1 105/43/43
f 55/1/1 19/122/122 104/167/41 105/43/43
s 26
f 109/57/156 25/56/143 28/50/142 112/60/157
f 77/45/140 13/61/158 14/70/159 81/46/141
s 2
f 111/212/46 5/234/160 112/228/161 110/47/47
f 112/228/161 28/49/49 113/48/48 110/47/47
f 113/48/48 26/125/125 60/44/44 110/47/47
f 81/232/50 14/137/144 84/23/23 114/51/51
f 84/23/23 29/22/22 115/52/52 114/51/51
f 115/52/52 26/125/125 113/48/48 114/51/51
f 117/53/53 16/150/162 118/118/118 116/54/54
f 118/118/118 30/6/6 61/5/5 116/54/54
f 61/5/5 26/125/125 115/52/52 116/54/54
s 1
f 121/170/57 2/176/163 108/177/164 123/58/58
f 108/177/164 24/178/60 124/59/59 123/58/58
f 124/59/59 35/128/128 68/55/55 123/58/58
f 56/181/61 12/182/129 71/15/15 125/62/62
f 71/15/15 36/14/14 126/63/63 125/62/62
f 126/63/63 35/128/128 124/59/59 125/62/62
f 128/165/64 11/147/155 106/166/42
f 106/42/42 22/10/10 69/9/9 127/65/65
f 69/9/9 35/128/128 126/63/63 127/65/65
f 130/67/67 4/194/165 131/195/166 129/68/68
f 131/195/166 39/199/70 132/69/69 129/68/68
f 132/69/69 37/132/132 73/163/66 129/68/68
f 80/198/71 13/201/133 76/19/19 133/72/72
f 76/19/19 40/18/18 134/73/73 133/72/72
f 134/73/73 37/132/132 132/69/69 133/72/72
f 136/74/74 11/147/155 128/165/64 135/75/75
f 128/165/64 74/164/13 135/75/75
f 74/164/13 37/132/132 134/73/73 135/75/75
f 109/196/78 3/202/167 122/184/168
f 122/184/168 34/188/81 138/80/80 137/79/79
f 138/80/80 41/135/135 78/76/76 137/79/79
f 64/187/82 10/190/120 52/3/3 139/83/83
f 52/3/3 23/2/2 140/84/84 139/83/83
f 140/84/84 41/135/135 138/80/80 139/83/83
f 107/85/85 11/147/155 136/74/74 141/86/86
f 136/74/74 40/18/18 79/17/17 141/86/86
f 79/17/17 41/135/135 140/84/84 141/86/86
s 26
f 142/71/169 131/77/170 4/78/171 6/236/172
f 142/71/169 42/38/138 39/35/137 131/77/170
f 80/34/136 85/39/139 14/70/159 13/61/158
f 109/57/156 112/60/157 5/238/173 3/237/174
s 2
f 142/89/89 6/157/175 119/220/176 144/90/90
f 119/220/176 31/221/92 145/91/91 144/90/90
f 145/91/91 44/138/146 86/87/87 144/90/90
f 62/224/93 17/225/147 89/27/27 146/94/94
f 89/27/27 45/26/26 147/95/95 146/94/94
f 147/95/95 44/138/146 145/91/91 146/94/94
f 149/96/96 16/150/162 117/53/53 148/97/97
f 117/53/53 29/22/22 87/21/21 148/97/97
f 87/21/21 44/138/146 147/95/95 148/97/97
f 151/218/100 8/219/177 152/203/178 150/101/101
f 152/203/178 48/207/103 153/102/102 150/101/101
f 153/102/102 46/141/149 91/98/98 150/101/101
f 98/206/104 18/209/150 94/31/31 154/105/105
f 94/31/31 49/30/30 155/106/106 154/105/105
f 155/106/106 46/141/149 153/102/102 154/105/105
f 157/107/107 16/150/162 149/96/96 156/108/108
f 149/96/96 45/26/26 92/25/25 156/108/108
f 92/25/25 46/141/149 155/106/106 156/108/108
f 120/204/111 7/210/179 143/211/180 158/112/112
f 143/211/180 43/215/114 159/113/113 158/112/112
f 159/113/113 50/144/152 96/109/109 158/112/112
f 82/214/115 15/217/123 58/7/7 160/116/116
f 58/7/7 30/6/6 161/117/117 160/116/116
f 161/117/117 50/144/152 159/113/113 160/116/116
f 118/118/118 16/150/162 157/107/107 162/119/119
f 157/107/107 49/30/30 97/29/29 162/119/119
f 97/29/29 50/144/152 161/117/117 162/119/119
s 28
f 5/81/181 111/82/182 122/92/183 3/93/184
f 34/99/185 122/92/183 111/82/182 27/100/186
f 27/100/186 59/103/187 64/104/188 34/99/185
f 10/110/189 64/104/188 59/103/187 15/111/190
f 15/111/190 82/114/191 53/115/192 10/110/189
f 20/120/193 53/115/192 82/114/191 43/121/194
f 43/121/194 143/123/195 100/124/196 20/120/193
f 1/126/197 100/124/196 143/123/195 7/127/198
s 29
f 101/130/199 1/239/200 7/129/201 120/131/202
f 21/133/203 101/130/199 120/131/202 32/134/204
f 63/136/205 21/133/203 32/134/204 95/139/206
f 9/140/207 63/136/205 95/139/206 18/142/208
f 67/143/209 9/140/207 18/142/208 98/145/210
f 33/148/211 67/143/209 98/145/210 48/149/212
f 121/151/213 33/148/211 48/149/212 152/152/214
f 2/153/215 121/151/213 152/152/214 8/242/216
s 30
f 108/154/217 2/155/218 8/156/219 151/158/220
f 151/158/220 47/159/221 24/160/222 108/154/217
f 56/161/223 24/160/222 47/159/221 90/162/224
f 90/162/224 17/169/225 12/193/226 56/161/223
f 72/226/227 12/193/226 17/169/225 62/227/228
f 62/227/228 31/229/229 38/231/230 72/226/227
f 130/233/231 38/231/230 31/229/229 119/235/232
f 119/235/232 6/240/233 4/241/234 130/233/231
s 1
f 101/146/154 21/171/38 102/37/37
f 104/41/41 102/37/37 103/40/40
f 104/41/41 22/10/10 106/42/42
f 128/64/64 106/42/42 127/65/65
f 128/64/64 36/14/14 74/13/13
f 73/66/66 74/13/13 70/16/16
f 73/66/66 38/180/131 130/183/67
f 109/196/78 122/184/168 137/79/79
